<svg width="0" height="0" display="none" xmlns="http://www.w3.org/2000/svg">
  <symbol width="24" height="24" viewBox="0 0 24 24" id="search" xmlns="http://www.w3.org/2000/svg">
    <path fill-rule="evenodd" clip-rule="evenodd" d="M16.3257 14.899L21.7057 20.279C21.8948 20.4682 22.001 20.7248 22.0009 20.9923C22.0008 21.2599 21.8945 21.5164 21.7052 21.7055C21.516 21.8946 21.2594 22.0008 20.9919 22.0007C20.7244 22.0006 20.4678 21.8942 20.2787 21.705L14.8987 16.325C13.2905 17.5707 11.268 18.1569 9.24287 17.9643C7.21772 17.7718 5.34198 16.815 3.99723 15.2886C2.65248 13.7622 1.93973 11.7808 2.004 9.74753C2.06826 7.71427 2.9047 5.78185 4.34315 4.34339C5.7816 2.90494 7.71402 2.0685 9.74729 2.00424C11.7806 1.93998 13.7619 2.65272 15.2884 3.99747C16.8148 5.34222 17.7716 7.21796 17.9641 9.24312C18.1566 11.2683 17.5704 13.2907 16.3247 14.899H16.3257ZM10.0007 16C11.592 16 13.1182 15.3678 14.2434 14.2426C15.3686 13.1174 16.0007 11.5913 16.0007 9.99999C16.0007 8.40869 15.3686 6.88257 14.2434 5.75735C13.1182 4.63213 11.592 3.99999 10.0007 3.99999C8.40944 3.99999 6.88332 4.63213 5.7581 5.75735C4.63289 6.88257 4.00074 8.40869 4.00074 9.99999C4.00074 11.5913 4.63289 13.1174 5.7581 14.2426C6.88332 15.3678 8.40944 16 10.0007 16Z" fill="white"/>
  </symbol>
  <symbol id="heart" viewBox="0 0 24 24">
      <path d="M0 0h24v24H0V0z" fill="none"></path>
      <path d="M16.5 3c-1.74 0-3.41.81-4.5 2.09C10.91 3.81 9.24 3 7.5 3 4.42 3 2 5.42 2 8.5c0 3.78 3.4 6.86 8.55 11.54L12 21.35l1.45-1.32C18.6 15.36 22 12.28 22 8.5 22 5.42 19.58 3 16.5 3zm-4.4 15.55l-.1.1-.1-.1C7.14 14.24 4 11.39 4 8.5 4 6.5 5.5 5 7.5 5c1.54 0 3.04.99 3.57 2.36h1.87C13.46 5.99 14.96 5 16.5 5c2 0 3.5 1.5 3.5 3.5 0 2.89-3.14 5.74-7.9 10.05z"></path>
  </symbol>
  <symbol id="send" viewBox="0 0 23 26" fill="none" xmlns="http://www.w3.org/2000/svg">
    <path d="M2.96412 24.86L21.439 14.5141C21.7104 14.3621 21.9364 14.1405 22.0937 13.8721C22.2511 13.6037 22.334 13.2982 22.334 12.9871C22.334 12.676 22.2511 12.3705 22.0937 12.1021C21.9364 11.8337 21.7104 11.6121 21.439 11.4601L2.96412 1.1141C2.65326 0.939991 2.29667 0.864919 1.942 0.898915C1.58733 0.932911 1.25149 1.07435 0.979361 1.30434C0.707235 1.53433 0.511793 1.8419 0.419157 2.18594C0.326521 2.52998 0.341106 2.8941 0.460964 3.22963L3.94565 12.987L0.460963 22.7445C0.392369 22.9356 0.357182 23.1371 0.356946 23.3401C0.358682 23.6447 0.439815 23.9437 0.592343 24.2074C0.744874 24.4712 0.963527 24.6906 1.22673 24.844C1.48994 24.9975 1.7886 25.0796 2.09326 25.0824C2.39791 25.0852 2.69804 25.0085 2.96401 24.86L2.96412 24.86ZM5.49156 13.8621L11.8749 13.8621C12.107 13.8621 12.3295 13.7699 12.4936 13.6058C12.6577 13.4417 12.7499 13.2191 12.7499 12.9871C12.7499 12.755 12.6577 12.5325 12.4936 12.3684C12.3295 12.2043 12.107 12.1121 11.8749 12.1121L5.49156 12.1121L2.1099 2.64152L20.5841 12.9871L2.10935 23.3322L5.49156 13.8621Z" fill="white"/>
  </symbol>
  <symbol id="apple" viewBox="0 0 24 24" fill="none" xmlns="http://www.w3.org/2000/svg">
    <path d="M12 1.5C6.19969 1.5 1.5 6.19969 1.5 12C1.5 17.8003 6.19969 22.5 12 22.5C17.8003 22.5 22.5 17.8003 22.5 12C22.5 6.19969 17.8003 1.5 12 1.5ZM8.01562 16.5886C7.95119 16.6985 7.85896 16.7895 7.74821 16.8524C7.63745 16.9154 7.51208 16.9481 7.38469 16.9472C7.25485 16.9483 7.12727 16.9133 7.01625 16.8459C6.93359 16.798 6.8612 16.7343 6.80324 16.6583C6.74528 16.5824 6.70288 16.4957 6.67849 16.4034C6.6541 16.311 6.6482 16.2147 6.66111 16.12C6.67403 16.0254 6.70551 15.9342 6.75375 15.8517L7.47047 14.6602C7.50669 14.5987 7.55836 14.5477 7.62036 14.5123C7.68236 14.477 7.75253 14.4585 7.82391 14.4586H7.92984C8.44969 14.4586 8.81344 14.7712 8.91937 15.0741L8.01562 16.5886ZM14.0836 14.2448L9.39 14.25H6.27047C6.17232 14.2504 6.07511 14.2309 5.98474 14.1926C5.89436 14.1543 5.8127 14.0981 5.74472 14.0273C5.67673 13.9565 5.62384 13.8726 5.58924 13.7808C5.55464 13.6889 5.53906 13.591 5.54344 13.493C5.55844 13.0992 5.90203 12.8011 6.29344 12.8011H8.55469L11.2355 8.23781L10.3673 6.75891C10.1719 6.42188 10.2586 5.9775 10.5938 5.76562C10.6764 5.71219 10.769 5.67601 10.8659 5.65927C10.9629 5.64253 11.0622 5.64557 11.158 5.6682C11.2538 5.69084 11.344 5.73261 11.4232 5.791C11.5024 5.84939 11.569 5.92319 11.6189 6.00797L12.083 6.80062H12.0881L12.5527 6.00797C12.6027 5.92363 12.6691 5.85022 12.7481 5.79213C12.8271 5.73403 12.917 5.69244 13.0124 5.66982C13.1078 5.6472 13.2068 5.64403 13.3034 5.66049C13.4001 5.67695 13.4925 5.71271 13.575 5.76562C13.9083 5.9775 13.9941 6.42188 13.7972 6.76031L12.9291 8.23922L12.0853 9.67781L10.253 12.8025V12.8077H12.9534C13.2919 12.8077 13.7161 12.9895 13.8877 13.282L13.9027 13.3125C14.0541 13.5698 14.1398 13.7466 14.1398 14.0039C14.1374 14.0875 14.1187 14.1698 14.085 14.2463L14.0836 14.2448ZM17.7281 14.25H16.4573V14.2552L17.3864 15.8353C17.4863 16.0017 17.5169 16.2007 17.4716 16.3895C17.4263 16.5782 17.3087 16.7416 17.1441 16.8445C17.03 16.9141 16.8989 16.9509 16.7653 16.9509C16.6383 16.9509 16.5134 16.918 16.4028 16.8554C16.2923 16.7928 16.1998 16.7027 16.1344 16.5938L14.7614 14.2566L13.9083 12.8034L12.8077 10.9219C12.6482 10.6532 12.5616 10.3476 12.5562 10.0353C12.5509 9.72294 12.6271 9.41458 12.7772 9.14062C12.9947 8.75672 13.1611 8.65594 13.1611 8.65594L15.6094 12.7969H17.7145C18.1083 12.7969 18.4463 13.0997 18.4645 13.4883C18.4683 13.5871 18.4521 13.6856 18.4168 13.778C18.3816 13.8704 18.328 13.9546 18.2594 14.0258C18.1907 14.0969 18.1084 14.1535 18.0174 14.192C17.9263 14.2305 17.8284 14.2503 17.7295 14.25H17.7281Z" fill="#484848"/>
  </symbol>
  <symbol id="google" viewBox="0 0 22 22" fill="none" xmlns="http://www.w3.org/2000/svg">
    <path d="M2.0625 2.55621V19.4429C2.06261 19.4796 2.07354 19.5154 2.09391 19.5458C2.11428 19.5763 2.14319 19.6 2.17701 19.6141C2.21083 19.6282 2.24806 19.632 2.28402 19.625C2.31999 19.618 2.35309 19.6006 2.37918 19.5748L11.1719 11L2.37918 2.42429C2.35309 2.39857 2.31999 2.38112 2.28402 2.37414C2.24806 2.36716 2.21083 2.37094 2.17701 2.38503C2.14319 2.39912 2.11428 2.42288 2.09391 2.45333C2.07354 2.48378 2.06261 2.51957 2.0625 2.55621Z" fill="#484848"/>
    <path d="M14.8583 7.47657L3.8334 1.40251L3.82653 1.39864C3.6366 1.29551 3.45613 1.55247 3.61168 1.702L12.254 9.96575L14.8583 7.47657Z" fill="#484848"/>
    <path d="M3.61219 20.298C3.45578 20.4475 3.63625 20.7045 3.82703 20.6014L3.8339 20.5975L14.858 14.5234L12.2536 12.0334L3.61219 20.298Z" fill="#484848"/>
    <path d="M19.3095 9.92579L16.2307 8.23024L13.3359 11L16.2307 13.7685L19.3095 12.0742C20.1469 11.6115 20.1469 10.3886 19.3095 9.92579Z" fill="#484848"/>
  </symbol>
  <symbol id="fb" viewBox="0 0 24 24" fill="none" xmlns="http://www.w3.org/2000/svg">
    <path d="M21.4286 0H2.57143C1.88944 0 1.23539 0.270918 0.753154 0.753154C0.270918 1.23539 0 1.88944 0 2.57143L0 21.4286C0 22.1106 0.270918 22.7646 0.753154 23.2468C1.23539 23.7291 1.88944 24 2.57143 24H9.92411V15.8405H6.54911V12H9.92411V9.07286C9.92411 5.74339 11.9063 3.90429 14.9421 3.90429C16.3961 3.90429 17.9164 4.16357 17.9164 4.16357V7.43143H16.2413C14.5907 7.43143 14.0759 8.45571 14.0759 9.50625V12H17.7605L17.1713 15.8405H14.0759V24H21.4286C22.1106 24 22.7646 23.7291 23.2468 23.2468C23.7291 22.7646 24 22.1106 24 21.4286V2.57143C24 1.88944 23.7291 1.23539 23.2468 0.753154C22.7646 0.270918 22.1106 0 21.4286 0Z" fill="#484848"/>
  </symbol>
  <symbol id="insta" viewBox="0 0 24 24" fill="none" xmlns="http://www.w3.org/2000/svg">
    <path d="M12 0C8.73784 0 8.33129 0.015752 7.05463 0.0697587C5.77272 0.132767 4.90561 0.331541 4.14052 0.628579C3.33976 0.930882 2.61457 1.40419 2.0155 2.0155C1.40248 2.61317 0.928914 3.33877 0.628579 4.14052C0.331541 4.90561 0.132767 5.77272 0.0697587 7.05463C0.0120015 8.33204 0 8.73784 0 12C0 15.2622 0.015752 15.6687 0.0697587 16.9454C0.132767 18.2235 0.331541 19.0944 0.628579 19.8595C0.930882 20.6602 1.40419 21.3854 2.0155 21.9845C2.61317 22.5975 3.33877 23.0711 4.14052 23.3714C4.90561 23.6647 5.77647 23.8672 7.05463 23.9302C8.33204 23.988 8.73784 24 12 24C15.2622 24 15.6687 23.9842 16.9454 23.9302C18.2235 23.8672 19.0944 23.664 19.8595 23.3714C20.6602 23.0691 21.3854 22.5958 21.9845 21.9845C22.5983 21.3875 23.072 20.6617 23.3714 19.8595C23.6647 19.0944 23.8672 18.2235 23.9302 16.9454C23.988 15.668 24 15.2622 24 12C24 8.73784 23.9842 8.33129 23.9302 7.05463C23.8672 5.77647 23.664 4.90111 23.3714 4.14052C23.0691 3.33976 22.5958 2.61457 21.9845 2.0155C21.3875 1.40169 20.6617 0.928001 19.8595 0.628579C19.0944 0.331541 18.2235 0.132767 16.9454 0.0697587C15.668 0.0120015 15.2622 0 12 0ZM12 2.16027C15.2037 2.16027 15.5862 2.17602 16.8524 2.23003C18.0203 2.28479 18.6563 2.47981 19.0786 2.64483C19.6007 2.83755 20.0732 3.14428 20.4618 3.54269C20.8595 3.92961 21.1651 4.40106 21.3559 4.92212C21.5209 5.34442 21.716 5.9805 21.7707 7.14839C21.8247 8.41455 21.8405 8.79785 21.8405 12.0007C21.8405 15.2037 21.8247 15.5869 21.7662 16.8531C21.7032 18.021 21.5082 18.6571 21.3439 19.0794C21.1166 19.6427 20.8631 20.0365 20.4446 20.4626C20.0547 20.8585 19.5825 21.1637 19.0614 21.3567C18.6443 21.5217 17.9993 21.7167 16.8269 21.7715C15.5539 21.8255 15.1789 21.8412 11.967 21.8412C8.7551 21.8412 8.3808 21.8255 7.10639 21.767C5.93849 21.704 5.29416 21.5089 4.87186 21.3447C4.30179 21.1174 3.91099 20.8639 3.49244 20.4453C3.07013 20.023 2.8016 19.621 2.59457 19.0621C2.42655 18.6451 2.23453 18 2.17227 16.8276C2.12952 15.5697 2.10926 15.1796 2.10926 11.9827C2.10926 8.78735 2.12952 8.39655 2.17227 7.12289C2.23453 5.95049 2.42655 5.30691 2.59457 4.88836C2.8016 4.31754 3.07088 3.92749 3.49244 3.50519C3.91024 3.08739 4.30179 2.81735 4.87186 2.60583C5.29416 2.44156 5.92274 2.24653 7.09514 2.18802C8.36805 2.14227 8.74309 2.12577 11.9505 2.12577L12 2.16027ZM12 5.84098C11.1909 5.84068 10.3897 5.99983 9.64212 6.30932C8.89456 6.61881 8.21531 7.07258 7.6432 7.6447C7.07108 8.21681 6.61731 8.89606 6.30782 9.64362C5.99833 10.3912 5.83918 11.1924 5.83948 12.0015C5.83918 12.8106 5.99833 13.6118 6.30782 14.3594C6.61731 15.1069 7.07108 15.7862 7.6432 16.3583C8.21531 16.9304 8.89456 17.3842 9.64212 17.6937C10.3897 18.0032 11.1909 18.1623 12 18.162C12.8091 18.1623 13.6103 18.0032 14.3579 17.6937C15.1054 17.3842 15.7847 16.9304 16.3568 16.3583C16.9289 15.7862 17.3827 15.1069 17.6922 14.3594C18.0017 13.6118 18.1608 12.8106 18.1605 12.0015C18.1608 11.1924 18.0017 10.3912 17.6922 9.64362C17.3827 8.89606 16.9289 8.21681 16.3568 7.6447C15.7847 7.07258 15.1054 6.61881 14.3579 6.30932C13.6103 5.99983 12.8091 5.84068 12 5.84098ZM12 16.0018C9.78872 16.0018 7.99975 14.2128 7.99975 12.0015C7.99975 9.79022 9.78872 8.00125 12 8.00125C14.2113 8.00125 16.0002 9.79022 16.0002 12.0015C16.0002 14.2128 14.2113 16.0018 12 16.0018ZM19.849 5.59495C19.8486 5.97725 19.6964 6.34375 19.426 6.61393C19.1555 6.88412 18.7888 7.03588 18.4066 7.03588C18.2175 7.03588 18.0303 6.99865 17.8557 6.92631C17.6811 6.85397 17.5224 6.74794 17.3887 6.61428C17.2551 6.48062 17.149 6.32194 17.0767 6.1473C17.0044 5.97266 16.9671 5.78548 16.9671 5.59645C16.9671 5.40742 17.0044 5.22024 17.0767 5.0456C17.149 4.87096 17.2551 4.71228 17.3887 4.57862C17.5224 4.44496 17.6811 4.33893 17.8557 4.26659C18.0303 4.19425 18.2175 4.15702 18.4066 4.15702C19.1994 4.15702 19.849 4.8021 19.849 5.59495Z" fill="#484848"/>
  </symbol>
  <symbol id="linkedin" viewBox="0 0 24 24" fill="none" xmlns="http://www.w3.org/2000/svg">
    <path fill-rule="evenodd" clip-rule="evenodd" d="M2.96792e-07 2.00509C2.96792e-07 1.47331 0.21125 0.963308 0.587278 0.58728C0.963305 0.211253 1.47331 2.67307e-06 2.00509 2.67307e-06H21.9927C22.2563 -0.000427747 22.5173 0.0511258 22.7609 0.151712C23.0045 0.252298 23.2258 0.399941 23.4123 0.586188C23.5987 0.772435 23.7466 0.993628 23.8475 1.2371C23.9483 1.48058 24.0001 1.74156 24 2.00509V21.9927C24.0003 22.2563 23.9486 22.5174 23.8479 22.761C23.7472 23.0046 23.5994 23.2259 23.4131 23.4123C23.2268 23.5988 23.0055 23.7466 22.762 23.8475C22.5184 23.9483 22.2574 24.0001 21.9938 24H2.00509C1.74169 24 1.48086 23.9481 1.23752 23.8473C0.994184 23.7464 0.773096 23.5986 0.586892 23.4123C0.400688 23.226 0.253017 23.0049 0.152316 22.7615C0.0516145 22.5181 -0.000143013 22.2572 2.96792e-07 21.9938V2.00509ZM9.49964 9.15055H12.7495V10.7825C13.2185 9.84437 14.4185 9 16.2218 9C19.6789 9 20.4982 10.8687 20.4982 14.2975V20.6487H16.9996V15.0785C16.9996 13.1258 16.5305 12.024 15.3393 12.024C13.6865 12.024 12.9993 13.212 12.9993 15.0785V20.6487H9.49964V9.15055ZM3.49964 20.4993H6.99927V9H3.49964V20.4982V20.4993ZM7.5 5.24946C7.5066 5.5491 7.45328 5.84704 7.34317 6.1258C7.23306 6.40456 7.06838 6.65851 6.8588 6.87276C6.64921 7.08702 6.39894 7.25725 6.12268 7.37346C5.84641 7.48968 5.54972 7.54955 5.25 7.54955C4.95028 7.54955 4.65359 7.48968 4.37732 7.37346C4.10106 7.25725 3.85079 7.08702 3.6412 6.87276C3.43162 6.65851 3.26694 6.40456 3.15683 6.1258C3.04672 5.84704 2.9934 5.5491 3 5.24946C3.01295 4.6613 3.25569 4.10159 3.67624 3.69021C4.09678 3.27882 4.6617 3.04846 5.25 3.04846C5.8383 3.04846 6.40322 3.27882 6.82376 3.69021C7.24431 4.10159 7.48705 4.6613 7.5 5.24946Z" fill="#484848"/>
  </symbol>
  <symbol id="twitter" viewBox="0 0 27 22" fill="none" xmlns="http://www.w3.org/2000/svg">
    <path d="M27 2.6096C26.0071 3.05059 24.9405 3.34856 23.8191 3.48324C24.9761 2.78933 25.8417 1.69719 26.2544 0.410618C25.1674 1.05779 23.9777 1.51332 22.737 1.75742C21.9027 0.864556 20.7977 0.272751 19.5934 0.0738863C18.3891 -0.124978 17.1531 0.080224 16.0771 0.657635C15.0011 1.23505 14.1454 2.15236 13.6429 3.26716C13.1403 4.38195 13.019 5.63186 13.2979 6.82283C11.0952 6.71198 8.9405 6.13817 6.97346 5.13862C5.00643 4.13907 3.27106 2.73613 1.87999 1.02085C1.40434 1.84324 1.13085 2.79672 1.13085 3.81219C1.13032 4.72634 1.35491 5.62649 1.78471 6.43277C2.21451 7.23906 2.83623 7.92654 3.59469 8.43423C2.71507 8.40617 1.85487 8.16795 1.08566 7.73937V7.81088C1.08557 9.09302 1.52805 10.3357 2.33801 11.3281C3.14798 12.3204 4.27554 13.0014 5.52938 13.2553C4.71339 13.4767 3.85788 13.5093 3.02748 13.3507C3.38124 14.4539 4.07033 15.4186 4.99828 16.1097C5.92623 16.8009 7.04659 17.1839 8.2025 17.2051C6.24027 18.7491 3.81692 19.5866 1.32229 19.5829C0.880397 19.583 0.438873 19.5571 0 19.5054C2.53219 21.1373 5.47984 22.0034 8.49027 22C18.681 22 24.252 13.5402 24.252 6.20306C24.252 5.96469 24.246 5.72393 24.2353 5.48556C25.3189 4.7001 26.2543 3.72744 26.9976 2.61318L27 2.6096Z" fill="#484848"/>
  </symbol>
  <symbol id="bedroom" viewBox="0 0 25 20" fill="none" xmlns="http://www.w3.org/2000/svg">
    <path d="M3.30078 2.725C3.30078 2.2675 3.48252 1.82874 3.80602 1.50524C4.12952 1.18174 4.56828 1 5.02578 1H19.9758C20.4333 1 20.872 1.18174 21.1955 1.50524C21.519 1.82874 21.7008 2.2675 21.7008 2.725V9.05H3.30078V2.725Z" stroke="#484848" stroke-width="2" stroke-linecap="round" stroke-linejoin="round"/>
    <path d="M2.15039 15.9501V18.2501" stroke="#484848" stroke-width="2" stroke-linecap="round" stroke-linejoin="round"/>
    <path d="M22.8496 15.9501V18.2501" stroke="#484848" stroke-width="2" stroke-linecap="round" stroke-linejoin="round"/>
    <path d="M15.3754 6.17493H9.62539C9.16789 6.17493 8.72913 6.35667 8.40563 6.68017C8.08213 7.00367 7.90039 7.44243 7.90039 7.89993V9.04993H17.1004V7.89993C17.1004 7.44243 16.9187 7.00367 16.5952 6.68017C16.2717 6.35667 15.8329 6.17493 15.3754 6.17493Z" stroke="#484848" stroke-width="2" stroke-linecap="round" stroke-linejoin="round"/>
    <path d="M1 10.7749C1 10.3174 1.18174 9.87867 1.50524 9.55517C1.82874 9.23167 2.2675 9.04993 2.725 9.04993H22.275C22.7325 9.04993 23.1713 9.23167 23.4948 9.55517C23.8183 9.87867 24 10.3174 24 10.7749V15.9499H1V10.7749Z" stroke="#484848" stroke-width="2" stroke-linecap="round" stroke-linejoin="round"/>
  </symbol>
  <symbol id="bathroom" viewBox="0 0 20 19" fill="none" xmlns="http://www.w3.org/2000/svg">
    <path d="M18.2513 7H4.83464V4C4.83464 2.897 5.69426 2 6.7513 2C7.80834 2 8.66797 2.897 8.66797 4H10.5846C10.5846 1.794 8.86539 0 6.7513 0C4.63722 0 2.91797 1.794 2.91797 4V7H1.0013C0.747136 7 0.50338 7.10536 0.323658 7.29289C0.143936 7.48043 0.0429688 7.73478 0.0429688 8V10C0.0429688 12.606 1.64722 14.823 3.8763 15.65V19H5.79297V16H13.4596V19H15.3763V15.65C17.6054 14.823 19.2096 12.606 19.2096 10V8C19.2096 7.73478 19.1087 7.48043 18.9289 7.29289C18.7492 7.10536 18.5055 7 18.2513 7ZM17.293 10C17.293 12.206 15.5737 14 13.4596 14H5.79297C3.67889 14 1.95964 12.206 1.95964 10V9H17.293V10Z" fill="#484848"/>
  </symbol>
  <symbol id="star" viewBox="0 0 20 20" fill="none" xmlns="http://www.w3.org/2000/svg">
    <path d="M19.9471 7.18002C19.8843 6.99491 19.7686 6.83225 19.6143 6.71214C19.4601 6.59202 19.274 6.5197 19.0791 6.50411L13.3781 6.05117L10.9111 0.590889C10.8325 0.415025 10.7047 0.265654 10.5431 0.160804C10.3815 0.0559538 10.193 0.000105865 10.0004 1.50359e-07C9.80777 -0.000105564 9.61922 0.0555355 9.45751 0.160208C9.2958 0.264881 9.16784 0.414111 9.08908 0.589889L6.62206 6.05117L0.921032 6.50411C0.729486 6.51928 0.546368 6.5893 0.393584 6.70581C0.2408 6.82231 0.12482 6.98036 0.0595198 7.16105C-0.00578041 7.34173 -0.017636 7.5374 0.0253714 7.72465C0.0683787 7.91189 0.164428 8.08278 0.302028 8.21688L4.51505 12.3233L3.02504 18.7745C2.9798 18.9698 2.9943 19.1741 3.06666 19.361C3.13903 19.548 3.26591 19.7088 3.43085 19.8228C3.59579 19.9367 3.79117 19.9984 3.99163 20C4.1921 20.0015 4.3884 19.9427 4.55505 19.8313L10.0001 16.2018L15.4451 19.8313C15.6155 19.9444 15.8163 20.0026 16.0208 19.9981C16.2252 19.9937 16.4233 19.9267 16.5885 19.8063C16.7537 19.6858 16.8781 19.5177 16.9449 19.3245C17.0117 19.1313 17.0177 18.9222 16.9621 18.7255L15.1331 12.3263L19.6691 8.24487C19.9661 7.97691 20.0751 7.55897 19.9471 7.18002Z" fill="#484848"/>
  </symbol>
  <symbol id="share" viewBox="0 0 32 35" fill="none" xmlns="http://www.w3.org/2000/svg">
    <path d="M25.3327 11.3333C27.91 11.3333 29.9993 9.244 29.9993 6.66667C29.9993 4.08934 27.91 2 25.3327 2C22.7554 2 20.666 4.08934 20.666 6.66667C20.666 9.244 22.7554 11.3333 25.3327 11.3333Z" stroke="#484848" stroke-width="3" stroke-linecap="round" stroke-linejoin="round"/>
    <path d="M6.66667 22.2222C9.244 22.2222 11.3333 20.1329 11.3333 17.5556C11.3333 14.9783 9.244 12.8889 6.66667 12.8889C4.08934 12.8889 2 14.9783 2 17.5556C2 20.1329 4.08934 22.2222 6.66667 22.2222Z" stroke="#484848" stroke-width="3" stroke-linecap="round" stroke-linejoin="round"/>
    <path d="M25.3327 33.1112C27.91 33.1112 29.9993 31.0218 29.9993 28.4445C29.9993 25.8672 27.91 23.7778 25.3327 23.7778C22.7554 23.7778 20.666 25.8672 20.666 28.4445C20.666 31.0218 22.7554 33.1112 25.3327 33.1112Z" stroke="#484848" stroke-width="3" stroke-linecap="round" stroke-linejoin="round"/>
    <path d="M10.6953 19.9043L21.3198 26.0954" stroke="#484848" stroke-width="3" stroke-linecap="round" stroke-linejoin="round"/>
    <path d="M21.3042 9.01538L10.6953 15.2065" stroke="#484848" stroke-width="3" stroke-linecap="round" stroke-linejoin="round"/>
  </symbol>

</svg>