<svg width="0" height="0" display="none" xmlns="http://www.w3.org/2000/svg"><symbol width="24" height="24" viewBox="0 0 24 24" id="search" xmlns="http://www.w3.org/2000/svg"><path fill-rule="evenodd" clip-rule="evenodd" d="M16.3257 14.899l5.38 5.38C21.8948 20.4682 22.001 20.7248 22.0009 20.9923 22.0008 21.2599 21.8945 21.5164 21.7052 21.7055 21.516 21.8946 21.2594 22.0008 20.9919 22.0007 20.7244 22.0006 20.4678 21.8942 20.2787 21.705l-5.38-5.38c-1.6082 1.2457-3.6307 1.8319-5.65583 1.6393C7.21772 17.7718 5.34198 16.815 3.99723 15.2886 2.65248 13.7622 1.93973 11.7808 2.004 9.74753c.06426-2.03326.9007-3.96568 2.33915-5.40414C5.7816 2.90494 7.71402 2.0685 9.74729 2.00424 11.7806 1.93998 13.7619 2.65272 15.2884 3.99747c1.5264 1.34475 2.4832 3.22049 2.6757 5.24565C18.1566 11.2683 17.5704 13.2907 16.3247 14.899H16.3257zM10.0007 16C11.592 16 13.1182 15.3678 14.2434 14.2426c1.1252-1.1252 1.7573-2.6513 1.7573-4.24261C16.0007 8.40869 15.3686 6.88257 14.2434 5.75735c-1.1252-1.12522-2.6514-1.75736-4.2427-1.75736-1.59126.0-3.11738.63214-4.2426 1.75736C4.63289 6.88257 4.00074 8.40869 4.00074 9.99999 4.00074 11.5913 4.63289 13.1174 5.7581 14.2426 6.88332 15.3678 8.40944 16 10.0007 16z" fill="#fff"/></symbol><symbol id="heart" viewBox="0 0 24 24"><path d="M0 0h24v24H0V0z" fill="none"/><path d="M16.5 3c-1.74.0-3.41.81-4.5 2.09C10.91 3.81 9.24 3 7.5 3 4.42 3 2 5.42 2 8.5c0 3.78 3.4 6.86 8.55 11.54L12 21.35l1.45-1.32C18.6 15.36 22 12.28 22 8.5 22 5.42 19.58 3 16.5 3zm-4.4 15.55-.1.1-.1-.1C7.14 14.24 4 11.39 4 8.5 4 6.5 5.5 5 7.5 5c1.54.0 3.04.99 3.57 2.36h1.87C13.46 5.99 14.96 5 16.5 5c2 0 3.5 1.5 3.5 3.5.0 2.89-3.14 5.74-7.9 10.05z"/></symbol><symbol id="send" viewBox="0 0 23 26" fill="none" xmlns="http://www.w3.org/2000/svg"><path d="M2.96412 24.86 21.439 14.5141C21.7104 14.3621 21.9364 14.1405 22.0937 13.8721 22.2511 13.6037 22.334 13.2982 22.334 12.9871S22.2511 12.3705 22.0937 12.1021C21.9364 11.8337 21.7104 11.6121 21.439 11.4601L2.96412 1.1141C2.65326.939991 2.29667.864919 1.942.898915c-.35467.033996-.69051.175435-.962639.405425-.272126.22999-.467568.53756-.560204.8816-.092636.34404-.078051.70816.041807 1.04369L3.94565 12.987.460963 22.7445C.392369 22.9356.357182 23.1371.356946 23.3401.358682 23.6447.439815 23.9437.592343 24.2074.744874 24.4712.963527 24.6906 1.22673 24.844 1.48994 24.9975 1.7886 25.0796 2.09326 25.0824 2.39791 25.0852 2.69804 25.0085 2.96401 24.86H2.96412zM5.49156 13.8621H11.8749C12.107 13.8621 12.3295 13.7699 12.4936 13.6058 12.6577 13.4417 12.7499 13.2191 12.7499 12.9871 12.7499 12.755 12.6577 12.5325 12.4936 12.3684 12.3295 12.2043 12.107 12.1121 11.8749 12.1121H5.49156L2.1099 2.64152 20.5841 12.9871 2.10935 23.3322l3.38221-9.4701z" fill="#fff"/></symbol><symbol id="apple" viewBox="0 0 24 24" fill="none" xmlns="http://www.w3.org/2000/svg"><path d="M12 1.5C6.19969 1.5 1.5 6.19969 1.5 12c0 5.8003 4.69969 10.5 10.5 10.5 5.8003.0 10.5-4.6997 10.5-10.5C22.5 6.19969 17.8003 1.5 12 1.5zM8.01562 16.5886C7.95119 16.6985 7.85896 16.7895 7.74821 16.8524 7.63745 16.9154 7.51208 16.9481 7.38469 16.9472 7.25485 16.9483 7.12727 16.9133 7.01625 16.8459 6.93359 16.798 6.8612 16.7343 6.80324 16.6583 6.74528 16.5824 6.70288 16.4957 6.67849 16.4034 6.6541 16.311 6.6482 16.2147 6.66111 16.12 6.67403 16.0254 6.70551 15.9342 6.75375 15.8517l.71672-1.1915C7.50669 14.5987 7.55836 14.5477 7.62036 14.5123 7.68236 14.477 7.75253 14.4585 7.82391 14.4586H7.92984c.51985.0.8836.3126.98953.615499999999999L8.01562 16.5886zm6.06798-2.3438L9.39 14.25H6.27047C6.17232 14.2504 6.07511 14.2309 5.98474 14.1926 5.89436 14.1543 5.8127 14.0981 5.74472 14.0273 5.67673 13.9565 5.62384 13.8726 5.58924 13.7808 5.55464 13.6889 5.53906 13.591 5.54344 13.493 5.55844 13.0992 5.90203 12.8011 6.29344 12.8011H8.55469L11.2355 8.23781l-.8682-1.4789C10.1719 6.42188 10.2586 5.9775 10.5938 5.76562 10.6764 5.71219 10.769 5.67601 10.8659 5.65927 10.9629 5.64253 11.0622 5.64557 11.158 5.6682 11.2538 5.69084 11.344 5.73261 11.4232 5.791 11.5024 5.84939 11.569 5.92319 11.6189 6.00797l.4641.79265H12.0881L12.5527 6.00797C12.6027 5.92363 12.6691 5.85022 12.7481 5.79213 12.8271 5.73403 12.917 5.69244 13.0124 5.66982 13.1078 5.6472 13.2068 5.64403 13.3034 5.66049 13.4001 5.67695 13.4925 5.71271 13.575 5.76562 13.9083 5.9775 13.9941 6.42188 13.7972 6.76031l-.8681 1.47891-.8438 1.43859L10.253 12.8025V12.8077h2.7004C13.2919 12.8077 13.7161 12.9895 13.8877 13.282L13.9027 13.3125C14.0541 13.5698 14.1398 13.7466 14.1398 14.0039 14.1374 14.0875 14.1187 14.1698 14.085 14.2463L14.0836 14.2448zM17.7281 14.25H16.4573V14.2552L17.3864 15.8353C17.4863 16.0017 17.5169 16.2007 17.4716 16.3895 17.4263 16.5782 17.3087 16.7416 17.1441 16.8445 17.03 16.9141 16.8989 16.9509 16.7653 16.9509 16.6383 16.9509 16.5134 16.918 16.4028 16.8554 16.2923 16.7928 16.1998 16.7027 16.1344 16.5938l-1.373-2.3372-.8531-1.4532-1.1006-1.8815C12.6482 10.6532 12.5616 10.3476 12.5562 10.0353 12.5509 9.72294 12.6271 9.41458 12.7772 9.14062 12.9947 8.75672 13.1611 8.65594 13.1611 8.65594l2.4483 4.14096h2.1051c.393799999999999.0.7318.3028.75.6914C18.4683 13.5871 18.4521 13.6856 18.4168 13.778 18.3816 13.8704 18.328 13.9546 18.2594 14.0258 18.1907 14.0969 18.1084 14.1535 18.0174 14.192 17.9263 14.2305 17.8284 14.2503 17.7295 14.25H17.7281z" fill="#484848"/></symbol><symbol id="google" viewBox="0 0 22 22" fill="none" xmlns="http://www.w3.org/2000/svg"><path d="M2.0625 2.55621V19.4429C2.06261 19.4796 2.07354 19.5154 2.09391 19.5458 2.11428 19.5763 2.14319 19.6 2.17701 19.6141S2.24806 19.632 2.28402 19.625C2.31999 19.618 2.35309 19.6006 2.37918 19.5748L11.1719 11 2.37918 2.42429C2.35309 2.39857 2.31999 2.38112 2.28402 2.37414 2.24806 2.36716 2.21083 2.37094 2.17701 2.38503S2.11428 2.42288 2.09391 2.45333C2.07354 2.48378 2.06261 2.51957 2.0625 2.55621z" fill="#484848"/><path d="M14.8583 7.47657 3.8334 1.40251 3.82653 1.39864c-.18993-.10313-.3704.15383-.21485.30336L12.254 9.96575l2.6043-2.48918z" fill="#484848"/><path d="M3.61219 20.298C3.45578 20.4475 3.63625 20.7045 3.82703 20.6014L3.8339 20.5975 14.858 14.5234l-2.6044-2.49L3.61219 20.298z" fill="#484848"/><path d="M19.3095 9.92579 16.2307 8.23024 13.3359 11l2.8948 2.7685 3.0788-1.6943C20.1469 11.6115 20.1469 10.3886 19.3095 9.92579z" fill="#484848"/></symbol><symbol id="fb" viewBox="0 0 24 24" xmlns="http://www.w3.org/2000/svg"><path d="M21.4286.0H2.57143C1.88944.0 1.23539.270918.753154.753154S0 1.88944.0 2.57143V21.4286C0 22.1106.270918 22.7646.753154 23.2468 1.23539 23.7291 1.88944 24 2.57143 24H9.92411V15.8405h-3.375V12h3.375V9.07286c0-3.32947 1.98219-5.16857 5.01799-5.16857 1.454.0 2.9743.25928 2.9743.25928V7.43143H16.2413c-1.6506.0-2.1654 1.02428-2.1654 2.07482V12h3.6846L17.1713 15.8405H14.0759V24h7.3527C22.1106 24 22.7646 23.7291 23.2468 23.2468 23.7291 22.7646 24 22.1106 24 21.4286V2.57143C24 1.88944 23.7291 1.23539 23.2468.753154 22.7646.270918 22.1106.0 21.4286.0z"/></symbol><symbol id="insta" viewBox="0 0 24 24" xmlns="http://www.w3.org/2000/svg"><path d="M12 0C8.73784.0 8.33129.015752 7.05463.0697587 5.77272.132767 4.90561.331541 4.14052.628579 3.33976.930882 2.61457 1.40419 2.0155 2.0155 1.40248 2.61317.928914 3.33877.628579 4.14052.331541 4.90561.132767 5.77272.0697587 7.05463.0120015 8.33204.0 8.73784.0 12c0 3.2622.015752 3.6687.0697587 4.9454.0630083 1.2781.2617823 2.149.5588203 2.9141C.930882 20.6602 1.40419 21.3854 2.0155 21.9845c.59767.613 1.32327 1.0866 2.12502 1.3869C4.90561 23.6647 5.77647 23.8672 7.05463 23.9302 8.33204 23.988 8.73784 24 12 24 15.2622 24 15.6687 23.9842 16.9454 23.9302 18.2235 23.8672 19.0944 23.664 19.8595 23.3714 20.6602 23.0691 21.3854 22.5958 21.9845 21.9845 22.5983 21.3875 23.072 20.6617 23.3714 19.8595 23.6647 19.0944 23.8672 18.2235 23.9302 16.9454 23.988 15.668 24 15.2622 24 12 24 8.73784 23.9842 8.33129 23.9302 7.05463 23.8672 5.77647 23.664 4.90111 23.3714 4.14052 23.0691 3.33976 22.5958 2.61457 21.9845 2.0155 21.3875 1.40169 20.6617.928001 19.8595.628579c-.7651-.297038-1.636-.495812-2.9141-.5588203C15.668.0120015 15.2622.0 12 0zm0 2.16027c3.2037.0 3.5862.0157499999999997 4.8524.06976C18.0203 2.28479 18.6563 2.47981 19.0786 2.64483 19.6007 2.83755 20.0732 3.14428 20.4618 3.54269 20.8595 3.92961 21.1651 4.40106 21.3559 4.92212 21.5209 5.34442 21.716 5.9805 21.7707 7.14839 21.8247 8.41455 21.8405 8.79785 21.8405 12.0007 21.8405 15.2037 21.8247 15.5869 21.7662 16.8531 21.7032 18.021 21.5082 18.6571 21.3439 19.0794 21.1166 19.6427 20.8631 20.0365 20.4446 20.4626 20.0547 20.8585 19.5825 21.1637 19.0614 21.3567 18.6443 21.5217 17.9993 21.7167 16.8269 21.7715 15.5539 21.8255 15.1789 21.8412 11.967 21.8412S8.3808 21.8255 7.10639 21.767C5.93849 21.704 5.29416 21.5089 4.87186 21.3447 4.30179 21.1174 3.91099 20.8639 3.49244 20.4453 3.07013 20.023 2.8016 19.621 2.59457 19.0621 2.42655 18.6451 2.23453 18 2.17227 16.8276 2.12952 15.5697 2.10926 15.1796 2.10926 11.9827 2.10926 8.78735 2.12952 8.39655 2.17227 7.12289 2.23453 5.95049 2.42655 5.30691 2.59457 4.88836 2.8016 4.31754 3.07088 3.92749 3.49244 3.50519 3.91024 3.08739 4.30179 2.81735 4.87186 2.60583c.4223-.16427 1.05088-.3593 2.22328-.41781C8.36805 2.14227 8.74309 2.12577 11.9505 2.12577L12 2.16027zm0 3.68071C11.1909 5.84068 10.3897 5.99983 9.64212 6.30932 8.89456 6.61881 8.21531 7.07258 7.6432 7.6447c-.57212.57211-1.02589 1.25136-1.33538 1.99892C5.99833 10.3912 5.83918 11.1924 5.83948 12.0015 5.83918 12.8106 5.99833 13.6118 6.30782 14.3594 6.61731 15.1069 7.07108 15.7862 7.6432 16.3583 8.21531 16.9304 8.89456 17.3842 9.64212 17.6937 10.3897 18.0032 11.1909 18.1623 12 18.162 12.8091 18.1623 13.6103 18.0032 14.3579 17.6937 15.1054 17.3842 15.7847 16.9304 16.3568 16.3583 16.9289 15.7862 17.3827 15.1069 17.6922 14.3594 18.0017 13.6118 18.1608 12.8106 18.1605 12.0015 18.1608 11.1924 18.0017 10.3912 17.6922 9.64362 17.3827 8.89606 16.9289 8.21681 16.3568 7.6447 15.7847 7.07258 15.1054 6.61881 14.3579 6.30932 13.6103 5.99983 12.8091 5.84068 12 5.84098zM12 16.0018c-2.21128.0-4.00025-1.789-4.00025-4.0003.0-2.21128 1.78897-4.00025 4.00025-4.00025 2.2113.0 4.0002 1.78897 4.0002 4.00025.0 2.2113-1.7889 4.0003-4.0002 4.0003zM19.849 5.59495C19.8486 5.97725 19.6964 6.34375 19.426 6.61393 19.1555 6.88412 18.7888 7.03588 18.4066 7.03588 18.2175 7.03588 18.0303 6.99865 17.8557 6.92631 17.6811 6.85397 17.5224 6.74794 17.3887 6.61428 17.2551 6.48062 17.149 6.32194 17.0767 6.1473 17.0044 5.97266 16.9671 5.78548 16.9671 5.59645S17.0044 5.22024 17.0767 5.0456C17.149 4.87096 17.2551 4.71228 17.3887 4.57862 17.5224 4.44496 17.6811 4.33893 17.8557 4.26659 18.0303 4.19425 18.2175 4.15702 18.4066 4.15702c.7928.0 1.4424.64508 1.4424 1.43793z" /></symbol><symbol id="linkedin" viewBox="0 0 24 24" xmlns="http://www.w3.org/2000/svg"><path fill-rule="evenodd" clip-rule="evenodd" d="M.296792e-6 2.00509C.296792e-6 1.47331.21125.963308.587278.58728.963305.211253 1.47331.267307e-5 2.00509.267307e-5H21.9927C22.2563-427747e-9 22.5173.0511258 22.7609.151712 23.0045.252298 23.2258.399941 23.4123.586188 23.5987.772435 23.7466.993628 23.8475 1.2371c.1008.24348.1526.50446.1525.76799V21.9927C24.0003 22.2563 23.9486 22.5174 23.8479 22.761S23.5994 23.2259 23.4131 23.4123C23.2268 23.5988 23.0055 23.7466 22.762 23.8475 22.5184 23.9483 22.2574 24.0001 21.9938 24H2.00509C1.74169 24 1.48086 23.9481 1.23752 23.8473.994184 23.7464.773096 23.5986.586892 23.4123.400688 23.226.253017 23.0049.152316 22.7615.0516145 22.5181-143013e-9 22.2572.296792e-6 21.9938V2.00509zM9.49964 9.15055H12.7495V10.7825C13.2185 9.84437 14.4185 9 16.2218 9c3.4571.0 4.2764 1.8687 4.2764 5.2975v6.3512H16.9996V15.0785C16.9996 13.1258 16.5305 12.024 15.3393 12.024c-1.6528.0-2.34 1.188-2.34 3.0545v5.5702H9.49964V9.15055zm-6 11.34875H6.99927V9H3.49964V20.4982 20.4993zM7.5 5.24946C7.5066 5.5491 7.45328 5.84704 7.34317 6.1258 7.23306 6.40456 7.06838 6.65851 6.8588 6.87276 6.64921 7.08702 6.39894 7.25725 6.12268 7.37346c-.27627.11622-.57296.17609-.87268.17609S4.65359 7.48968 4.37732 7.37346C4.10106 7.25725 3.85079 7.08702 3.6412 6.87276 3.43162 6.65851 3.26694 6.40456 3.15683 6.1258 3.04672 5.84704 2.9934 5.5491 3 5.24946c.01295-.58816.25569-1.14787.67624-1.55925.42054-.41139.98546-.64175 1.57376-.64175s1.15322.23036 1.57376.64175c.42055.41138.66329.97109.67624 1.55925z" /></symbol><symbol id="twitter" viewBox="0 0 27 22" xmlns="http://www.w3.org/2000/svg"><path d="M27 2.6096C26.0071 3.05059 24.9405 3.34856 23.8191 3.48324c1.157-.69391 2.0226-1.78605 2.4353-3.072622-1.087.647172-2.2767 1.102702-3.5174 1.346802C21.9027.864556 20.7977.272751 19.5934.0738863 18.3891-.124978 17.1531.080224 16.0771.657635c-1.076.577415-1.9317 1.494725-2.4342 2.609525C13.1403 4.38195 13.019 5.63186 13.2979 6.82283c-2.2027-.11085-4.3574-.68466-6.32444-1.68421-1.96703-.99955-3.7024-2.40249-5.09347-4.11777-.47565.82239-.74914 1.77587-.74914 2.79134C1.13032 4.72634 1.35491 5.62649 1.78471 6.43277 2.21451 7.23906 2.83623 7.92654 3.59469 8.43423 2.71507 8.40617 1.85487 8.16795 1.08566 7.73937v.07151C1.08557 9.09302 1.52805 10.3357 2.33801 11.3281c.80997.9923 1.93753 1.6733 3.19137 1.9272C4.71339 13.4767 3.85788 13.5093 3.02748 13.3507c.35376 1.1032 1.04285 2.0679 1.9708 2.759C5.92623 16.8009 7.04659 17.1839 8.2025 17.2051c-1.96223 1.544-4.38558 2.3815-6.88021 2.3778C.880397 19.583.438873 19.5571.0 19.5054 2.53219 21.1373 5.47984 22.0034 8.49027 22 18.681 22 24.252 13.5402 24.252 6.20306 24.252 5.96469 24.246 5.72393 24.2353 5.48556 25.3189 4.7001 26.2543 3.72744 26.9976 2.61318L27 2.6096z"/></symbol><symbol id="bedroom" viewBox="0 0 25 20" fill="none" xmlns="http://www.w3.org/2000/svg"><path d="M3.30078 2.725c0-.4575.18174-.89626.50524-1.21976C4.12952 1.18174 4.56828 1 5.02578 1H19.9758c.4575.0.8962.18174 1.2197.50524C21.519 1.82874 21.7008 2.2675 21.7008 2.725V9.05H3.30078V2.725z" stroke="#484848" stroke-width="2" stroke-linecap="round" stroke-linejoin="round"/><path d="M2.15039 15.9501v2.3" stroke="#484848" stroke-width="2" stroke-linecap="round" stroke-linejoin="round"/><path d="M22.8496 15.9501v2.3" stroke="#484848" stroke-width="2" stroke-linecap="round" stroke-linejoin="round"/><path d="M15.3754 6.17493H9.62539c-.4575.0-.89626.18174-1.21976.505240000000001C8.08213 7.00367 7.90039 7.44243 7.90039 7.89993v1.15H17.1004v-1.15C17.1004 7.44243 16.9187 7.00367 16.5952 6.68017 16.2717 6.35667 15.8329 6.17493 15.3754 6.17493z" stroke="#484848" stroke-width="2" stroke-linecap="round" stroke-linejoin="round"/><path d="M1 10.7749C1 10.3174 1.18174 9.87867 1.50524 9.55517 1.82874 9.23167 2.2675 9.04993 2.725 9.04993h19.55C22.7325 9.04993 23.1713 9.23167 23.4948 9.55517 23.8183 9.87867 24 10.3174 24 10.7749v5.175H1v-5.175z" stroke="#484848" stroke-width="2" stroke-linecap="round" stroke-linejoin="round"/></symbol><symbol id="bathroom" viewBox="0 0 20 19" fill="none" xmlns="http://www.w3.org/2000/svg"><path d="M18.2513 7H4.83464V4c0-1.103.85962-2 1.91666-2 1.05704.0 1.91667.897 1.91667 2H10.5846c0-2.206-1.71921-4-3.8333-4C4.63722.0 2.91797 1.794 2.91797 4V7H1.0013c-.254164.0-.49792.10536-.677642.29289C.143936 7.48043.0429688 7.73478.0429688 8v2c0 2.606 1.6042512 4.823 3.8333312 5.65V19H5.79297V16H13.4596v3h1.9167V15.65c2.2291-.827 3.8333-3.044 3.8333-5.65V8c0-.26522-.100899999999999-.51957-.2807-.70711C18.7492 7.10536 18.5055 7 18.2513 7zM17.293 10c0 2.206-1.7193 4-3.8334 4H5.79297c-2.11408.0-3.83333-1.794-3.83333-4V9H17.293v1z" fill="#484848"/></symbol><symbol id="star" viewBox="0 0 20 20" fill="none" xmlns="http://www.w3.org/2000/svg"><path d="M19.9471 7.18002C19.8843 6.99491 19.7686 6.83225 19.6143 6.71214 19.4601 6.59202 19.274 6.5197 19.0791 6.50411l-5.701-.45294L10.9111.590889C10.8325.415025 10.7047.265654 10.5431.160804 10.3815.0559538 10.193 105865e-9 10.0004.150359e-6 9.80777-105564e-9 9.61922.0555355 9.45751.160208 9.2958.264881 9.16784.414111 9.08908.589889L6.62206 6.05117.921032 6.50411C.729486 6.51928.546368 6.5893.393584 6.70581.2408 6.82231.12482 6.98036.0595198 7.16105-.00578041 7.34173-.017636 7.5374.0253714 7.72465c.0430073.18724.1390566.35813.2766566.49223L4.51505 12.3233 3.02504 18.7745C2.9798 18.9698 2.9943 19.1741 3.06666 19.361 3.13903 19.548 3.26591 19.7088 3.43085 19.8228 3.59579 19.9367 3.79117 19.9984 3.99163 20 4.1921 20.0015 4.3884 19.9427 4.55505 19.8313l5.44505-3.6295 5.445 3.6295C15.6155 19.9444 15.8163 20.0026 16.0208 19.9981 16.2252 19.9937 16.4233 19.9267 16.5885 19.8063 16.7537 19.6858 16.8781 19.5177 16.9449 19.3245S17.0177 18.9222 16.9621 18.7255l-1.829-6.3992 4.536-4.08143C19.9661 7.97691 20.0751 7.55897 19.9471 7.18002z" fill="#484848"/></symbol><symbol id="share" viewBox="0 0 32 35" xmlns="http://www.w3.org/2000/svg"><path d="M25.3327 11.3333c2.5773.0 4.6666-2.0893 4.6666-4.66663S27.91 2 25.3327 2C22.7554 2 20.666 4.08934 20.666 6.66667s2.0894 4.66663 4.6667 4.66663z" stroke="#484848" stroke-width="3" stroke-linecap="round" stroke-linejoin="round"/><path d="M6.66667 22.2222c2.57733.0 4.66663-2.0893 4.66663-4.6666.0-2.5773-2.0893-4.6667-4.66663-4.6667S2 14.9783 2 17.5556c0 2.5773 2.08934 4.6666 4.66667 4.6666z" stroke="#484848" stroke-width="3" stroke-linecap="round" stroke-linejoin="round"/><path d="M25.3327 33.1112c2.5773.0 4.6666-2.0894 4.6666-4.6667.0-2.5773-2.0893-4.6667-4.6666-4.6667-2.5773.0-4.6667 2.0894-4.6667 4.6667.0 2.5773 2.0894 4.6667 4.6667 4.6667z" stroke="#484848" stroke-width="3" stroke-linecap="round" stroke-linejoin="round"/><path d="M10.6953 19.9043l10.6245 6.1911" stroke="#484848" stroke-width="3" stroke-linecap="round" stroke-linejoin="round"/><path d="M21.3042 9.01538 10.6953 15.2065" stroke="#484848" stroke-width="3" stroke-linecap="round" stroke-linejoin="round"/></symbol></svg>